<svg width="86" height="75" viewBox="0 0 86 75" fill="none" xmlns="http://www.w3.org/2000/svg">
<path d="M32.8189 75C36.3238 75 39.1651 72.5284 39.1651 69.4795C39.1651 66.4306 36.3238 63.959 32.8189 63.959C29.314 63.959 26.4727 66.4306 26.4727 69.4795C26.4727 72.5284 29.314 75 32.8189 75Z" fill="white" fill-opacity="0.99"/>
<path d="M66.9977 75C70.5026 75 73.3439 72.5284 73.3439 69.4795C73.3439 66.4306 70.5026 63.959 66.9977 63.959C63.4928 63.959 60.6515 66.4306 60.6515 69.4795C60.6515 72.5284 63.4928 75 66.9977 75Z" fill="white" fill-opacity="0.99"/>
<path d="M85.1297 11.2776C84.495 10.5678 83.4978 10.1735 82.4099 10.1735H22.4837L21.2144 2.60252C20.9424 1.1041 19.4919 0 17.7693 0H3.44508C1.54122 0 0 1.34069 0 2.99685C0 4.653 1.54122 5.99369 3.44508 5.99369H14.6869L23.7529 57.8864C24.0249 59.3849 25.4754 60.489 27.198 60.489H71.168C73.0719 60.489 74.6131 59.1483 74.6131 57.4921C74.6131 55.836 73.0719 54.4953 71.168 54.4953H30.1898L29.1018 48.1861H75.4291C77.0609 48.1861 78.5115 47.1609 78.8741 45.7413L85.9456 13.7224C86.1269 12.8549 85.8549 11.9874 85.1297 11.2776Z" fill="white" fill-opacity="0.99"/>
</svg>
