<svg xmlns="http://www.w3.org/2000/svg" xmlns:xlink="http://www.w3.org/1999/xlink" version="1.1" x="0px" y="0px" viewBox="0 0 100 125" enable-background="new 0 0 100 100" xml:space="preserve"><g><path d="M54.742,30.999c-18.372,0-33.319,14.916-33.319,33.25c0,18.335,14.947,33.251,33.319,33.251   c18.373,0,33.32-14.916,33.32-33.251C88.062,45.915,73.115,30.999,54.742,30.999z M84.089,53.996   c-5.456-2.324-9.212-7.436-9.723-13.442c-0.012-0.123-0.012-0.246-0.019-0.369C78.76,43.771,82.168,48.536,84.089,53.996z    M54.742,33.221c6.906,0,13.291,2.26,18.458,6.074c0.003,0.451,0.021,0.904,0.06,1.353c0.245,2.884,1.197,5.57,2.691,7.887   l-6.43,3.999c-3.461-4.356-8.794-7.165-14.779-7.165c-3.59,0-6.936,1.025-9.797,2.771l-3.506-5.676   c0.576-0.361,1.164-0.707,1.771-1.023c1.032-0.535,2.108-1.002,3.198-1.386c0.29-0.102,0.441-0.419,0.34-0.708   c-0.101-0.289-0.418-0.441-0.708-0.34c-1.14,0.401-2.264,0.889-3.342,1.449c-0.632,0.327-1.243,0.688-1.843,1.063l-2.313-3.746   C43.264,34.888,48.812,33.221,54.742,33.221z M62.448,66h8.874C70.55,74,64,80.35,56,80.857V72.51c0-0.613-0.387-1.11-1-1.11   s-1,0.497-1,1.11v8.34C45,80.279,38.931,74,38.163,66h7.625c0.613,0,1.11-0.386,1.11-1s-0.497-1-1.11-1h-7.674   c0.317-9,7.272-15.615,15.754-16.168C53.812,47.965,54,47.923,54,48.075v8.886c0,0.613,0.387,1.11,1,1.11s1-0.497,1-1.11v-8.886   c0-0.156-0.141-0.304-0.199-0.438c8.551,0.483,15.309,7.588,15.624,16.183c-0.013,0-0.079,0.18-0.092,0.18h-8.885   c-0.614,0-1.111,0.386-1.111,1S61.834,66,62.448,66z M23.645,64.249c0-10.795,5.556-20.315,13.962-25.876l2.322,3.76   c-3.137,2.156-5.78,4.967-7.732,8.271c-0.156,0.264-0.068,0.604,0.196,0.76c0.088,0.053,0.186,0.077,0.282,0.077   c0.189,0,0.374-0.098,0.479-0.273c1.859-3.147,4.375-5.827,7.358-7.89l3.495,5.659c-4.915,3.412-8.146,9.089-8.146,15.513   c0,0.038,0.006,0.075,0.006,0.113c-0.043,0.118-0.075,0.241-0.075,0.373c0,0.174,0.048,0.332,0.118,0.479   c0.144,2.818,0.892,5.478,2.143,7.84l-6.588,4.098c-1.701-2.648-4.129-4.822-7.089-6.229C23.901,68.771,23.645,66.54,23.645,64.249   z M25.01,72.603c4.911,3.061,7.703,8.177,8.145,13.912C28.641,82.861,26.489,78.054,25.01,72.603z M54.742,95.278   c-7.888,0-14.922-2.798-20.41-7.646c0.02-0.339,0.02-0.849,0.02-1.188c0-3.002-0.929-5.842-2.313-8.342l6.574-4.09   c3.314,5.454,9.295,9.117,16.13,9.117c3.465,0,6.703-0.954,9.497-2.589l3.009,4.871c-1.179,0.681-2.407,1.276-3.686,1.756   c-0.287,0.107-0.433,0.428-0.324,0.715c0.084,0.223,0.295,0.36,0.52,0.36c0.065,0,0.132-0.012,0.195-0.036   c1.345-0.506,2.638-1.133,3.879-1.851l2.808,4.547C65.984,93.679,60.549,95.278,54.742,95.278z M71.583,90.315l-2.8-4.534   c2.201-1.401,4.199-3.123,5.903-5.126c0.199-0.234,0.171-0.584-0.062-0.783c-0.234-0.198-0.585-0.171-0.783,0.063   c-1.628,1.913-3.538,3.561-5.642,4.901l-3.01-4.873c5.078-3.388,8.435-9.164,8.435-15.715c0-4.026-1.278-7.755-3.435-10.823   l6.395-3.978c1.972,2.66,4.706,4.738,7.951,5.917c0.846,2.816,1.306,5.798,1.306,8.884C85.841,75.17,80.153,84.784,71.583,90.315z"/><path d="M48.342,25.171c0.487-1.288,1.052-3.186,0.33-4.779C45.278,12.866,37.749,8.003,29.489,8.003   c-2.987,0-5.893,0.628-8.637,1.866c-0.656,0.296-1.292,0.625-1.907,0.98l-6.168-8.467c-0.181-0.249-0.528-0.301-0.775-0.122   c-0.249,0.181-0.303,0.528-0.123,0.775l6.129,8.415c-0.738,0.48-1.448,0.994-2.115,1.559l-2.257-2.942   c-0.372-0.485-1.068-0.576-1.558-0.206c-0.486,0.375-0.579,1.071-0.206,1.558l2.391,3.117c-1.912,2.008-3.424,4.395-4.435,7.065   c-1.988,5.255-1.811,10.97,0.501,16.092c1.346,2.979,3.298,5.534,5.801,7.588c0.837,0.691,1.887,0.707,2.812,0.723   c0.166,0.003,0.333,0.005,0.501,0.012l0.384,0.016l28.396-20.548L48.342,25.171z M46.378,24.077L19.142,43.786   c-0.056-0.002-0.109-0.003-0.164-0.004c-0.589-0.009-1.196-0.019-1.436-0.216c-2.239-1.838-3.984-4.121-5.188-6.787   c-2.066-4.581-2.225-9.691-0.447-14.393c1.777-4.699,5.279-8.426,9.859-10.493c2.454-1.107,5.053-1.67,7.724-1.67   c7.388,0,14.123,4.35,17.159,11.082C47.009,22.104,46.625,23.384,46.378,24.077z"/><circle cx="24.897" cy="23.941" r="5.466"/><path d="M34.549,18.977c-0.742,0.334-1.311,0.938-1.598,1.7c-0.288,0.76-0.263,1.589,0.071,2.331   c0.491,1.089,1.582,1.793,2.778,1.793c0.433,0,0.854-0.092,1.25-0.271c0.742-0.334,1.31-0.938,1.598-1.698   c0.288-0.762,0.262-1.588-0.072-2.331C37.906,19.019,36.041,18.301,34.549,18.977z M37.609,22.439   c-0.183,0.482-0.543,0.865-1.015,1.078c-0.953,0.433-2.134-0.025-2.559-0.967c-0.213-0.472-0.229-0.998-0.046-1.481   c0.183-0.483,0.544-0.867,1.016-1.079c0.251-0.114,0.519-0.172,0.791-0.172c0.761,0,1.454,0.447,1.767,1.139   C37.775,21.43,37.792,21.955,37.609,22.439z"/><path d="M54.819,61.367c-0.474,0-0.934,0.101-1.366,0.296c-0.812,0.364-1.432,1.023-1.747,1.856   c-0.316,0.833-0.288,1.738,0.078,2.55c0.536,1.192,1.729,1.962,3.038,1.962c0.474,0,0.934-0.099,1.367-0.295   c0.812-0.365,1.433-1.025,1.747-1.857s0.287-1.738-0.079-2.548C57.319,62.138,56.128,61.367,54.819,61.367z M56.897,65.486   c-0.209,0.554-0.622,0.993-1.165,1.237c-1.094,0.494-2.449-0.029-2.936-1.11c-0.244-0.541-0.263-1.145-0.052-1.701   c0.21-0.554,0.623-0.993,1.164-1.236c0.289-0.131,0.596-0.197,0.91-0.197c0.872,0,1.667,0.514,2.025,1.309   C57.089,64.327,57.108,64.931,56.897,65.486z"/><circle cx="30.387" cy="55.814" r="1.11"/><circle cx="57.043" cy="38.043" r="1.11"/><circle cx="79.256" cy="72.474" r="1.11"/><circle cx="48.157" cy="88.023" r="1.11"/><path d="M78.546,54.182c-0.287,0.107-0.433,0.428-0.324,0.715c1.055,2.812,1.589,5.773,1.589,8.802   c0,0.308,0.248,0.556,0.556,0.556c0.307,0,0.555-0.248,0.555-0.556c0-3.161-0.559-6.255-1.66-9.192   C79.153,54.22,78.832,54.071,78.546,54.182z"/><path d="M64.76,40.715c1.03,0.45,2.035,0.972,2.99,1.553c0.09,0.055,0.189,0.081,0.288,0.081c0.187,0,0.37-0.095,0.474-0.267   c0.16-0.263,0.077-0.604-0.186-0.763c-0.996-0.606-2.046-1.152-3.121-1.622c-0.279-0.12-0.607,0.006-0.731,0.287   C64.352,40.265,64.479,40.593,64.76,40.715z"/></g><text x="0" y="115" fill="#000000" font-size="5px" font-weight="bold" font-family="'Helvetica Neue', Helvetica, Arial-Unicode, Arial, Sans-serif">Created by David Padrosa</text><text x="0" y="120" fill="#000000" font-size="5px" font-weight="bold" font-family="'Helvetica Neue', Helvetica, Arial-Unicode, Arial, Sans-serif">from the Noun Project</text></svg>