<svg xmlns="http://www.w3.org/2000/svg" xmlns:xlink="http://www.w3.org/1999/xlink" version="1.1" x="0px" y="0px" viewBox="0 0 100 125" enable-background="new 0 0 100 100" xml:space="preserve"><path fill="#000000" d="M78.007,65.482h-0.039l-1.086,2.043l0.416,0.223l4.541-8.582l-0.397-0.213l-3.121,5.869  C78.505,65.053,78.4,65.484,78.007,65.482z M77.516,65.482L76.1,65.475l-0.156,4.355c0.097,0.045,0.187,0.1,0.269,0.162l3.699-2.252  l-0.817-1.455l-1.095,2.061c-0.194,0.367-1.761-0.461-1.562-0.832L77.516,65.482z M57.195,52.42c0.061,0.09,0.107,0.189,0.145,0.299  c0.008,0.024,0.014,0.049,0.021,0.073C57.324,52.65,57.27,52.527,57.195,52.42z M55.012,53.062c0.006-0.369,0.15-0.648,0.366-0.836  c0.126-0.121,0.28-0.217,0.458-0.274c0.52-0.169,1.068,0.036,1.357,0.468c0.074,0.107,0.131,0.23,0.166,0.372  c0.016,0.062,0.025,0.128,0.033,0.196c0.004,0.047,0.006,0.092,0.006,0.142v1.181l6.844,10.526c0.633-0.206,1.308,0.138,1.512,0.765  c0.057,0.174,0.07,0.354,0.049,0.523l8.652,4.127c0.164-0.236,0.408-0.408,0.688-0.48l0.17-4.713l0.002-0.027  c0.01-0.104,0.051-0.184,0.105-0.24c0.062-0.064,0.157-0.111,0.275-0.115l2.242,0.012l3.24-6.098c0.031-0.059,0.096-0.086,0.18-0.09  l1.396-1.387l0.262-0.494c0.125-0.234,0.479-0.051,0.354,0.188l-0.285,0.541l-0.358,1.891c0.037,0.066,0.047,0.132,0.02,0.185  l-3.25,6.112c0.072,0.029,0.141,0.088,0.189,0.18l1.109,1.979c0.133,0.238,0.016,0.457-0.166,0.553l-3.995,2.434  c0.029,0.135,0.038,0.273,0.021,0.418c-0.079,0.662-0.687,1.139-1.352,1.055c-0.585-0.07-1.021-0.545-1.062-1.111l-8.806-4.195  c-0.125,0.117-0.276,0.209-0.451,0.266c-0.625,0.203-1.299-0.139-1.502-0.766c-0.112-0.352-0.057-0.717,0.125-1.008l-6.211-9.551  v20.615l3.015,6.271c0.539,1.123-0.652,2.002-1.534,1.654c0.391-0.006,0.777-0.389,0.557-0.861L56.21,76.63V54.279  c-0.505,0.005-0.976-0.315-1.142-0.823C55.027,53.324,55.01,53.193,55.012,53.062z M25.406,71.459  c0.074,0.068,0.113,0.164,0.121,0.266C25.521,71.605,25.474,71.518,25.406,71.459z M25.162,71.357  c0.09,0.008,0.177,0.039,0.244,0.102C25.347,71.402,25.265,71.365,25.162,71.357z M21.4,77.473  c-0.097-0.041-0.168-0.119-0.211-0.213C21.238,77.368,21.314,77.438,21.4,77.473z M21.669,77.477  c-0.046,0.017-0.093,0.021-0.14,0.021c-0.037,0-0.069-0.005-0.104-0.018C21.496,77.506,21.578,77.506,21.669,77.477z M24.742,72.156  l-4.223-0.018c-0.064,0.2-0.182,0.379-0.333,0.521l1.591,3.927l1.791-0.662c0.5-0.186,0.777,0.564,0.276,0.75l-2.153,0.797  c-0.062,0.02-0.115,0.025-0.162,0.025c0.047,0.002,0.094-0.005,0.14-0.02c-0.091,0.027-0.173,0.027-0.244,0.004l-0.024-0.01  c-0.086-0.035-0.162-0.104-0.211-0.211l-1.734-4.283c-0.029,0.002-0.06,0.004-0.09,0.004c-0.67,0-1.213-0.543-1.213-1.211  c0-0.65,0.512-1.184,1.153-1.213l4.524-8.721c-0.11-0.129-0.197-0.283-0.248-0.459c-0.182-0.633,0.185-1.293,0.816-1.477  c0.355-0.102,0.719-0.029,1.002,0.16l11.293-6.793v-0.14c0-0.424,0.168-0.735,0.416-0.937c0.127-0.111,0.283-0.197,0.459-0.25  c0.438-0.125,0.892,0.012,1.188,0.32c0.19,0.188,0.321,0.454,0.336,0.799c0.009,0.527-0.334,1.021-0.866,1.174  c-0.113,0.031-0.23,0.049-0.343,0.049v22.342l-3.226,6.834c-0.223,0.475,0.166,0.857,0.558,0.861  c-0.881,0.348-2.074-0.531-1.535-1.654l3.013-6.273V54.203l-10.82,6.512c0.184,0.641-0.184,1.301-0.815,1.482  c-0.177,0.051-0.356,0.059-0.524,0.029l-4.455,8.561c0.189,0.139,0.338,0.328,0.422,0.552l4.634,0.021h0.03  c0.103,0.008,0.185,0.043,0.244,0.102c0.066,0.061,0.113,0.146,0.121,0.266l0.07,2.301c0.016,0.531-0.783,0.557-0.801,0.022  L24.742,72.156z M31.021,15.096h2.332h6.702l0.643-3.93h6.342v3.929h13.662h2.33l-1.201-3.819l-3.17-2.251H35.392l-3.171,2.251  L31.021,15.096z M47.027,15.895H34.576l3.617,4.404c0.059,0.048,0.112,0.102,0.162,0.162h17.342  c0.049-0.061,0.104-0.114,0.162-0.162l3.617-4.404H47.027z M38.615,21.261l0.004,0.133l0.16,2.872l0.398,0.99h7.469l0.043-3.996  L38.615,21.261L38.615,21.261z M78.943,41.864l-0.205-0.354l-1.762,0.003l-0.199,0.351H78.943z M47.027,5.638l-6.871,0.005  l-3.639,2.583h21.016l-3.637-2.583L47.027,5.638z M54.871,25.257l0.4-0.99l0.158-2.872l0.004-0.133H47.49l-0.043,3.996  L54.871,25.257L54.871,25.257z M37.26,28.974l-1.641,5.316h1.289c0.254-0.002,0.566-0.232,0.647-0.513l1.32-4.515  c0.059-0.202-0.032-0.288-0.19-0.288H37.26z M40.47,35.791h18.514l-2.506-8.133H42.383L40.47,35.791z M35.156,35.791h4.489  l1.915-8.133h-3.896l-0.158,0.517h1.181c0.726,0,1.155,0.628,0.959,1.309L38.326,34c-0.176,0.602-0.781,1.084-1.406,1.091h-1.545  L35.156,35.791z M33.564,43.34v4.343H60.5V43.34H33.564z M33.564,38.191v4.349H60.5v-4.349H33.564z M41.97,13.379  c0,0.943,0.767,1.708,1.709,1.708c0.942,0,1.708-0.765,1.708-1.708s-0.766-1.709-1.708-1.709  C42.737,11.67,41.97,12.436,41.97,13.379z M84.523,51.161c-0.051-0.015-0.07-0.019-0.088-0.024c-0.021-0.01-0.035-0.02-0.049-0.033  c-0.017-0.015-0.025-0.031-0.035-0.049c-0.006-0.021-0.011-0.039-0.011-0.059s0.005-0.041,0.011-0.059  c0.01-0.021,0.021-0.035,0.035-0.049c0.014-0.018,0.028-0.027,0.049-0.033c0.018-0.008,0.037-0.015,0.059-0.015l1.26-4.068  c-0.04-0.014-0.057-0.025-0.07-0.04c-0.015-0.014-0.024-0.031-0.033-0.048c-0.008-0.02-0.012-0.039-0.012-0.059  s0.004-0.04,0.012-0.057c0.009-0.019,0.021-0.035,0.033-0.049c0.015-0.016,0.03-0.024,0.049-0.033l0.022-0.008l-1.179-3.816h-3.455  c-0.018,0.703-1.059,1.137-1.504,0.364l-0.209-0.364h-5.182l1.15,3.815c0.01-0.002,0.018-0.002,0.025-0.002  c0.021,0,0.039,0.003,0.059,0.011c0.02,0.007,0.034,0.018,0.049,0.033c0.018,0.014,0.026,0.03,0.034,0.049  c0.007,0.018,0.011,0.037,0.011,0.057c0,0.021-0.004,0.04-0.011,0.059c-0.008,0.018-0.019,0.034-0.034,0.048  c-0.015,0.014-0.027,0.025-0.048,0.033c-0.021,0.007-0.038,0.012-0.06,0.012c-0.021,0.017-0.026,0.032-0.036,0.049l-1.231,4.019  c0.012,0.002,0.021,0.006,0.03,0.01c0.019,0.006,0.033,0.018,0.05,0.033c0.014,0.014,0.024,0.027,0.032,0.049  c0.009,0.018,0.012,0.039,0.012,0.059s-0.003,0.038-0.012,0.059c-0.009,0.018-0.021,0.034-0.032,0.049  c-0.015,0.016-0.031,0.023-0.05,0.033l1.144,3.805l10.354-0.021L84.523,51.161z M77.781,39.911l1.439-0.001  c0.256-0.006,0.516,0.113,0.686,0.41l0.885,1.544h4.078c0.229,0,0.338,0.137,0.393,0.31l1.338,4.331  c0.017,0.052,0.021,0.101,0.019,0.148c0,0.034-0.007,0.068-0.017,0.104l-1.3,4.216c0.212,0.694,1.289,4.25,1.296,4.279  c0.021,0.124-0.009,0.229-0.07,0.309c-0.057,0.084-0.149,0.146-0.275,0.156c-0.034,0.006-11.236,0.025-11.236,0.025  c-0.185,0-0.3-0.098-0.354-0.225c-0.017-0.025-0.028-0.057-0.037-0.09L73.3,51.082c-0.032-0.109-0.022-0.208,0.013-0.287l1.28-4.16  l-0.723-2.389h-1.453c-0.265,0.243-0.631,0.4-1.103,0.4h-2.26c-0.473,0-0.839-0.157-1.104-0.4h-1.164  c-0.203,0.286-0.487,0.518-0.854,0.653L62.9,45.515v3.367c0,0.629-0.543,1.182-1.168,1.201v6.976l0.004,2.484l-2.406-3.721  l0.004-0.77v-4.972H34.721V53.6l-2.398,1.438v-4.954c-0.621-0.024-1.158-0.575-1.158-1.199V36.99c0-0.638,0.562-1.2,1.201-1.2h0.281  l2.986-9.687c0.1-0.327,0.584-0.718,0.971-0.821L36.48,24.98c-0.08-0.2-0.109-0.388-0.099-0.563l-0.147-2.724l-3.449-4.197h-3.397  c-0.562,0-0.926-0.296-1.093-0.681c-0.107-0.202-0.146-0.449-0.09-0.734c0.017-0.101,0.045-0.182,0.084-0.293l1.729-5.567  c0.062-0.244,0.219-0.478,0.487-0.668l8.457-6.023c0.194-0.175,0.467-0.287,0.812-0.287l1.309-0.001l-0.004-0.196  c-0.006-0.255,0.064-0.55,0.397-0.55h5.142V2.285c0-0.213,0.188-0.4,0.4-0.4h4.08c0.215,0,0.4,0.187,0.4,0.4v0.211h1.048  c0.213,0,0.399,0.187,0.399,0.4v0.347l1.336,0.001c0.346,0,0.615,0.112,0.812,0.287l8.457,6.023c0.269,0.19,0.423,0.424,0.486,0.668  l1.729,5.567c0.036,0.111,0.065,0.193,0.082,0.293c0.061,0.285,0.02,0.532-0.089,0.734c-0.167,0.385-0.532,0.681-1.094,0.681h-3.397  l-3.447,4.197l-0.147,2.724c0.011,0.175-0.021,0.363-0.101,0.563l-0.113,0.285c0.396,0.062,0.945,0.488,1.053,0.839l2.986,9.687  h0.203c0.64,0,1.199,0.562,1.199,1.2v3.572l3.033,0.614c0.375,0.138,0.664,0.377,0.866,0.671h1.152c0.264-0.244,0.631-0.4,1.103-0.4  h2.26c0.471,0,0.84,0.156,1.102,0.4h2.527l0.871-1.52c0.168-0.292,0.418-0.412,0.692-0.413L77.781,39.911z M50.896,12.724h5.949  c0.532,0,0.532,0.8,0,0.8h-5.949C50.363,13.523,50.363,12.724,50.896,12.724z M50.707,11.627h5.949c0.535,0,0.535,0.8,0,0.8h-5.949  C50.175,12.427,50.175,11.627,50.707,11.627z M51.082,13.82h5.949c0.533,0,0.533,0.8,0,0.8h-5.949  C50.549,14.62,50.549,13.82,51.082,13.82z M56.835,34.29c0.144-0.004,0.237-0.077,0.172-0.299l-1.313-4.503  c-0.104-0.296-0.405-0.514-0.653-0.514H54.3c0.104,0.118,0.183,0.255,0.226,0.4l1.317,4.516c0.046,0.146,0.046,0.282,0.013,0.4  H56.835z M57.775,33.766c0.193,0.672-0.199,1.309-0.924,1.323h-7.652c-0.664,0-1.244-0.518-1.338-1.167l-0.639-4.491l-0.003-0.026  c-0.081-0.661,0.396-1.219,1.063-1.23h6.754c0.629,0,1.22,0.477,1.411,1.057l0.009,0.028l1.315,4.502v0.004H57.775z M40.82,38.923  c0-0.221,0.18-0.4,0.4-0.4h0.404c0.221,0,0.398,0.179,0.398,0.4v2.875c0,0.221-0.179,0.4-0.398,0.4H41.22  c-0.221,0-0.4-0.179-0.4-0.4V38.923z M85.395,46.628c0,0.021-0.004,0.04-0.011,0.059c-0.009,0.018-0.021,0.034-0.034,0.048  c-0.014,0.014-0.029,0.025-0.049,0.033c-0.018,0.007-0.037,0.012-0.059,0.012s-0.039-0.004-0.059-0.012  c-0.021-0.008-0.035-0.019-0.05-0.033c-0.016-0.014-0.024-0.031-0.032-0.048c-0.009-0.02-0.013-0.039-0.013-0.059  s0.004-0.04,0.013-0.057c0.008-0.019,0.02-0.035,0.032-0.049c0.015-0.016,0.029-0.024,0.05-0.033  c0.02-0.008,0.037-0.011,0.059-0.011s0.039,0.003,0.059,0.011c0.018,0.007,0.035,0.018,0.049,0.033  c0.017,0.014,0.025,0.03,0.034,0.049C85.391,46.588,85.395,46.608,85.395,46.628z M84.85,46.628c0,0.021-0.004,0.04-0.013,0.059  c-0.009,0.018-0.021,0.034-0.032,0.048c-0.016,0.014-0.031,0.025-0.051,0.033c-0.02,0.007-0.038,0.012-0.059,0.012  c-0.021,0-0.039-0.004-0.059-0.012c-0.019-0.008-0.035-0.019-0.05-0.033c-0.015-0.014-0.024-0.031-0.032-0.048  c-0.009-0.02-0.012-0.039-0.012-0.059s0.003-0.04,0.012-0.057c0.008-0.019,0.02-0.035,0.032-0.049  c0.015-0.016,0.031-0.024,0.05-0.033c0.02-0.008,0.037-0.011,0.059-0.011c0.021,0,0.039,0.003,0.059,0.011  c0.02,0.007,0.035,0.018,0.051,0.033c0.014,0.014,0.023,0.03,0.032,0.049C84.846,46.588,84.85,46.608,84.85,46.628z M84.303,46.628  c0,0.021-0.005,0.04-0.014,0.059c-0.008,0.018-0.02,0.034-0.032,0.048c-0.015,0.014-0.03,0.025-0.05,0.033  c-0.018,0.007-0.036,0.012-0.059,0.012c-0.021,0-0.039-0.004-0.06-0.012c-0.019-0.008-0.032-0.019-0.049-0.033  c-0.015-0.014-0.024-0.031-0.033-0.048c-0.008-0.02-0.012-0.039-0.012-0.059s0.004-0.04,0.012-0.057  c0.009-0.019,0.021-0.035,0.033-0.049c0.017-0.016,0.03-0.024,0.049-0.033c0.021-0.008,0.038-0.011,0.06-0.011  c0.021,0,0.041,0.003,0.059,0.011c0.02,0.007,0.035,0.018,0.05,0.033c0.015,0.014,0.024,0.03,0.032,0.049  C84.298,46.588,84.303,46.608,84.303,46.628z M83.755,46.628c0,0.021-0.005,0.04-0.013,0.059c-0.006,0.018-0.02,0.034-0.032,0.048  c-0.015,0.014-0.03,0.025-0.05,0.033c-0.018,0.007-0.037,0.012-0.059,0.012c-0.021,0-0.039-0.004-0.06-0.012  c-0.019-0.008-0.033-0.019-0.049-0.033c-0.015-0.014-0.024-0.031-0.032-0.048c-0.009-0.02-0.014-0.039-0.014-0.059  s0.005-0.04,0.014-0.057c0.008-0.019,0.02-0.035,0.032-0.049c0.016-0.016,0.03-0.024,0.049-0.033  c0.021-0.008,0.039-0.011,0.06-0.011s0.041,0.003,0.059,0.011c0.02,0.007,0.035,0.018,0.05,0.033  c0.015,0.014,0.026,0.03,0.032,0.049C83.75,46.588,83.755,46.608,83.755,46.628z M83.209,46.628c0,0.021-0.004,0.04-0.014,0.059  c-0.006,0.018-0.018,0.034-0.033,0.048c-0.014,0.014-0.028,0.025-0.049,0.033c-0.018,0.007-0.037,0.012-0.059,0.012  c-0.021,0-0.039-0.004-0.06-0.012c-0.019-0.008-0.033-0.019-0.047-0.033c-0.017-0.014-0.026-0.031-0.035-0.048  c-0.009-0.02-0.011-0.039-0.011-0.059s0.002-0.04,0.011-0.057c0.009-0.019,0.021-0.035,0.035-0.049  c0.014-0.016,0.028-0.024,0.047-0.033c0.021-0.008,0.039-0.011,0.06-0.011s0.041,0.003,0.059,0.011  c0.021,0.007,0.035,0.018,0.049,0.033c0.018,0.014,0.027,0.03,0.033,0.049C83.205,46.588,83.209,46.608,83.209,46.628z   M82.662,46.628c0,0.021-0.006,0.04-0.014,0.059c-0.008,0.018-0.019,0.034-0.031,0.048c-0.016,0.014-0.03,0.025-0.051,0.033  c-0.019,0.007-0.037,0.012-0.058,0.012s-0.04-0.004-0.061-0.012c-0.019-0.008-0.033-0.019-0.048-0.033  c-0.017-0.014-0.024-0.031-0.032-0.048c-0.011-0.02-0.013-0.039-0.013-0.059s0.002-0.04,0.013-0.057  c0.008-0.019,0.019-0.035,0.032-0.049c0.015-0.016,0.029-0.024,0.048-0.033c0.021-0.008,0.038-0.011,0.059-0.011  s0.041,0.003,0.06,0.011c0.021,0.007,0.035,0.018,0.051,0.033c0.015,0.014,0.023,0.03,0.031,0.049  C82.656,46.588,82.662,46.608,82.662,46.628z M82.115,46.628c0,0.021-0.002,0.04-0.014,0.059c-0.006,0.018-0.018,0.034-0.029,0.048  c-0.018,0.014-0.031,0.025-0.051,0.033c-0.02,0.007-0.037,0.012-0.059,0.012s-0.04-0.004-0.061-0.012  c-0.019-0.008-0.034-0.019-0.049-0.033c-0.016-0.014-0.024-0.031-0.033-0.048c-0.008-0.02-0.012-0.039-0.012-0.059  s0.004-0.04,0.012-0.057c0.009-0.019,0.02-0.035,0.033-0.049c0.015-0.016,0.03-0.024,0.049-0.033  c0.021-0.008,0.039-0.011,0.059-0.011c0.021,0,0.041,0.003,0.059,0.011c0.021,0.007,0.035,0.018,0.053,0.033  c0.014,0.014,0.023,0.03,0.029,0.049C82.113,46.588,82.115,46.608,82.115,46.628z M81.57,46.628c0,0.021-0.006,0.04-0.014,0.059  c-0.008,0.018-0.019,0.034-0.031,0.048c-0.018,0.014-0.031,0.025-0.051,0.033c-0.021,0.007-0.039,0.012-0.06,0.012  s-0.039-0.004-0.06-0.012c-0.018-0.008-0.032-0.019-0.047-0.033c-0.018-0.014-0.026-0.031-0.035-0.048  c-0.008-0.02-0.012-0.039-0.012-0.059s0.004-0.04,0.012-0.057c0.009-0.019,0.02-0.035,0.035-0.049  c0.015-0.016,0.029-0.024,0.047-0.033c0.021-0.008,0.039-0.011,0.06-0.011s0.039,0.003,0.058,0.011  c0.021,0.007,0.035,0.018,0.053,0.033c0.014,0.014,0.023,0.03,0.031,0.049C81.564,46.588,81.57,46.608,81.57,46.628z M81.023,46.628  c0,0.021-0.006,0.04-0.015,0.059c-0.007,0.018-0.018,0.034-0.032,0.048c-0.014,0.014-0.029,0.025-0.049,0.033  c-0.021,0.007-0.039,0.012-0.058,0.012c-0.021,0-0.041-0.004-0.062-0.012c-0.018-0.008-0.033-0.019-0.049-0.033  c-0.016-0.014-0.025-0.031-0.031-0.048c-0.01-0.02-0.014-0.039-0.014-0.059s0.004-0.04,0.014-0.057  c0.006-0.019,0.019-0.035,0.031-0.049c0.016-0.016,0.031-0.024,0.049-0.033c0.021-0.008,0.039-0.011,0.06-0.011  s0.039,0.003,0.06,0.011c0.02,0.007,0.033,0.018,0.049,0.033c0.016,0.014,0.025,0.03,0.032,0.049  C81.02,46.588,81.023,46.608,81.023,46.628z M80.477,46.628c0,0.021-0.004,0.04-0.013,0.059c-0.009,0.018-0.019,0.034-0.032,0.048  c-0.016,0.014-0.031,0.025-0.05,0.033c-0.021,0.007-0.038,0.012-0.058,0.012c-0.021,0-0.041-0.004-0.061-0.012  c-0.019-0.008-0.033-0.019-0.049-0.033c-0.017-0.014-0.025-0.031-0.033-0.048c-0.008-0.02-0.011-0.039-0.011-0.059  s0.003-0.04,0.011-0.057c0.008-0.019,0.02-0.035,0.033-0.049c0.016-0.016,0.03-0.024,0.049-0.033  c0.02-0.008,0.039-0.011,0.059-0.011c0.021,0,0.039,0.003,0.058,0.011c0.021,0.007,0.037,0.018,0.052,0.033  c0.014,0.014,0.023,0.03,0.032,0.049C80.473,46.588,80.477,46.608,80.477,46.628z M79.93,46.628c0,0.021-0.005,0.04-0.014,0.059  c-0.006,0.018-0.018,0.034-0.031,0.048c-0.014,0.014-0.031,0.025-0.05,0.033c-0.019,0.007-0.038,0.012-0.058,0.012  c-0.021,0-0.041-0.004-0.06-0.012c-0.02-0.008-0.034-0.019-0.051-0.033c-0.015-0.014-0.024-0.031-0.032-0.048  c-0.008-0.02-0.011-0.039-0.011-0.059s0.003-0.04,0.011-0.057c0.008-0.019,0.02-0.035,0.032-0.049  c0.017-0.016,0.03-0.024,0.051-0.033c0.019-0.008,0.037-0.011,0.058-0.011s0.041,0.003,0.06,0.011  c0.019,0.007,0.034,0.018,0.05,0.033c0.016,0.014,0.025,0.03,0.032,0.049C79.925,46.588,79.93,46.608,79.93,46.628z M79.382,46.628  c0,0.021-0.004,0.04-0.013,0.059c-0.006,0.018-0.018,0.034-0.031,0.048c-0.014,0.014-0.029,0.025-0.049,0.033  c-0.021,0.007-0.039,0.012-0.059,0.012c-0.021,0-0.041-0.004-0.061-0.012s-0.033-0.019-0.048-0.033  c-0.017-0.014-0.026-0.031-0.033-0.048c-0.008-0.02-0.012-0.039-0.012-0.059s0.004-0.04,0.012-0.057  c0.007-0.019,0.019-0.035,0.033-0.049c0.015-0.016,0.028-0.024,0.048-0.033c0.02-0.008,0.038-0.011,0.061-0.011  c0.02,0,0.037,0.003,0.057,0.011c0.02,0.007,0.035,0.018,0.051,0.033c0.016,0.014,0.025,0.03,0.031,0.049  C79.378,46.588,79.382,46.608,79.382,46.628z M78.835,46.628c0,0.021-0.003,0.04-0.011,0.059c-0.008,0.018-0.02,0.034-0.033,0.048  c-0.014,0.014-0.029,0.025-0.049,0.033c-0.02,0.007-0.039,0.012-0.059,0.012c-0.021,0-0.041-0.004-0.06-0.012  c-0.021-0.008-0.035-0.019-0.049-0.033c-0.017-0.014-0.026-0.031-0.033-0.048c-0.008-0.02-0.013-0.039-0.013-0.059  s0.005-0.04,0.013-0.057c0.007-0.019,0.019-0.035,0.033-0.049c0.014-0.016,0.028-0.024,0.049-0.033  c0.019-0.008,0.037-0.011,0.06-0.011c0.02,0,0.037,0.003,0.057,0.011c0.02,0.007,0.035,0.018,0.051,0.033  c0.016,0.014,0.025,0.03,0.033,0.049C78.832,46.588,78.835,46.608,78.835,46.628z M78.287,46.628c0,0.021-0.002,0.04-0.01,0.059  c-0.008,0.018-0.021,0.034-0.033,0.048c-0.014,0.014-0.03,0.025-0.049,0.033c-0.021,0.007-0.039,0.012-0.059,0.012  c-0.021,0-0.041-0.004-0.06-0.012c-0.021-0.008-0.035-0.019-0.05-0.033c-0.014-0.014-0.024-0.031-0.032-0.048  c-0.009-0.02-0.013-0.039-0.013-0.059s0.004-0.04,0.013-0.057c0.008-0.019,0.021-0.035,0.032-0.049  c0.015-0.016,0.029-0.024,0.05-0.033c0.019-0.008,0.036-0.011,0.06-0.011c0.02,0,0.038,0.003,0.059,0.011  c0.018,0.007,0.033,0.018,0.049,0.033c0.015,0.014,0.025,0.03,0.033,0.049C78.285,46.588,78.287,46.608,78.287,46.628z   M77.742,46.628c0,0.021-0.004,0.04-0.012,0.059c-0.008,0.018-0.021,0.034-0.033,0.048c-0.014,0.014-0.031,0.025-0.049,0.033  c-0.021,0.007-0.039,0.012-0.06,0.012s-0.039-0.004-0.06-0.012c-0.02-0.008-0.034-0.019-0.049-0.033  c-0.016-0.014-0.026-0.031-0.033-0.048c-0.008-0.02-0.012-0.039-0.012-0.059s0.004-0.04,0.012-0.057  c0.007-0.019,0.02-0.035,0.033-0.049c0.015-0.016,0.029-0.024,0.049-0.033c0.021-0.008,0.039-0.011,0.06-0.011  s0.039,0.003,0.06,0.011c0.018,0.007,0.035,0.018,0.049,0.033c0.015,0.014,0.025,0.03,0.033,0.049  C77.738,46.588,77.742,46.608,77.742,46.628z M77.195,46.628c0,0.021-0.002,0.04-0.012,0.059c-0.008,0.018-0.019,0.034-0.031,0.048  c-0.016,0.014-0.029,0.025-0.051,0.033c-0.018,0.007-0.035,0.012-0.059,0.012s-0.039-0.004-0.059-0.012s-0.034-0.019-0.051-0.033  c-0.014-0.014-0.024-0.031-0.033-0.048c-0.006-0.02-0.01-0.039-0.01-0.059s0.004-0.04,0.01-0.057  c0.009-0.019,0.021-0.035,0.033-0.049c0.017-0.016,0.031-0.024,0.051-0.033c0.02-0.008,0.035-0.011,0.059-0.011  c0.021,0,0.038,0.003,0.059,0.011c0.02,0.007,0.033,0.018,0.051,0.033c0.016,0.014,0.023,0.03,0.031,0.049  C77.193,46.588,77.195,46.608,77.195,46.628z M76.65,46.628c0,0.021-0.006,0.04-0.014,0.059c-0.007,0.018-0.019,0.034-0.031,0.048  c-0.016,0.014-0.029,0.025-0.051,0.033c-0.019,0.007-0.037,0.012-0.06,0.012c-0.021,0-0.039-0.004-0.058-0.012  c-0.02-0.008-0.035-0.019-0.051-0.033c-0.014-0.014-0.025-0.031-0.033-0.048c-0.006-0.02-0.01-0.039-0.01-0.059  s0.004-0.04,0.01-0.057c0.008-0.019,0.021-0.035,0.033-0.049c0.016-0.016,0.031-0.024,0.051-0.033  c0.019-0.008,0.037-0.011,0.058-0.011s0.041,0.003,0.06,0.011c0.02,0.007,0.035,0.018,0.051,0.033  c0.016,0.014,0.024,0.03,0.031,0.049C76.646,46.588,76.65,46.608,76.65,46.628z M76.104,46.628c0,0.021-0.004,0.04-0.013,0.059  c-0.006,0.018-0.019,0.034-0.032,0.048c-0.015,0.014-0.029,0.025-0.05,0.033c-0.019,0.007-0.036,0.012-0.06,0.012  c-0.02,0-0.039-0.004-0.059-0.012c-0.019-0.008-0.033-0.019-0.049-0.033c-0.015-0.014-0.025-0.031-0.033-0.048  c-0.006-0.02-0.011-0.039-0.011-0.059s0.004-0.04,0.011-0.057c0.008-0.019,0.02-0.035,0.033-0.049  c0.016-0.016,0.03-0.024,0.049-0.033c0.02-0.008,0.039-0.011,0.059-0.011c0.021,0,0.041,0.003,0.06,0.011  c0.019,0.007,0.035,0.018,0.05,0.033c0.017,0.014,0.026,0.03,0.032,0.049C76.1,46.588,76.104,46.608,76.104,46.628z M84.1,50.996  c0,0.02-0.004,0.038-0.012,0.059c-0.01,0.018-0.02,0.034-0.033,0.049c-0.015,0.016-0.031,0.023-0.05,0.033  c-0.019,0.008-0.037,0.01-0.058,0.01c-0.021,0-0.041-0.002-0.059-0.01c-0.021-0.01-0.035-0.02-0.051-0.033  c-0.016-0.015-0.025-0.031-0.033-0.049c-0.007-0.021-0.011-0.039-0.011-0.059s0.004-0.041,0.011-0.059  c0.008-0.021,0.02-0.035,0.033-0.049c0.016-0.018,0.03-0.027,0.051-0.033c0.018-0.008,0.035-0.015,0.059-0.015  c0.019,0,0.037,0.007,0.058,0.015c0.019,0.006,0.034,0.018,0.05,0.033c0.014,0.014,0.023,0.027,0.033,0.049  C84.096,50.955,84.1,50.977,84.1,50.996z M83.553,50.996c0,0.02-0.005,0.038-0.012,0.059c-0.01,0.018-0.021,0.034-0.033,0.049  c-0.016,0.016-0.031,0.023-0.051,0.033c-0.018,0.008-0.036,0.01-0.057,0.01c-0.021,0-0.041-0.002-0.06-0.01  c-0.021-0.01-0.034-0.02-0.051-0.033c-0.015-0.015-0.024-0.031-0.032-0.049c-0.009-0.021-0.011-0.039-0.011-0.059  s0.002-0.041,0.011-0.059c0.008-0.021,0.021-0.035,0.032-0.049c0.017-0.018,0.03-0.027,0.051-0.033  c0.019-0.008,0.037-0.015,0.06-0.015c0.021,0,0.037,0.007,0.057,0.015c0.02,0.006,0.035,0.018,0.051,0.033  c0.014,0.014,0.023,0.027,0.033,0.049C83.548,50.955,83.553,50.977,83.553,50.996z M83.006,50.996c0,0.02-0.006,0.038-0.012,0.059  c-0.008,0.018-0.02,0.034-0.033,0.049c-0.016,0.016-0.029,0.023-0.051,0.033c-0.02,0.008-0.035,0.01-0.059,0.01  c-0.021,0-0.039-0.002-0.058-0.01c-0.021-0.01-0.035-0.02-0.049-0.033c-0.017-0.015-0.027-0.031-0.034-0.049  c-0.007-0.021-0.011-0.039-0.011-0.059s0.004-0.041,0.011-0.059c0.007-0.021,0.02-0.035,0.034-0.049  c0.014-0.018,0.028-0.027,0.049-0.033c0.019-0.008,0.037-0.015,0.058-0.015c0.021,0,0.039,0.007,0.059,0.015  c0.02,0.006,0.035,0.018,0.051,0.033c0.016,0.014,0.025,0.027,0.033,0.049C83,50.955,83.006,50.977,83.006,50.996z M82.459,50.996  c0,0.02-0.006,0.038-0.012,0.059c-0.008,0.018-0.02,0.034-0.033,0.049c-0.014,0.016-0.03,0.023-0.049,0.033  c-0.02,0.008-0.037,0.01-0.059,0.01c-0.022,0-0.041-0.002-0.06-0.01c-0.021-0.01-0.035-0.02-0.05-0.033  c-0.016-0.015-0.024-0.031-0.032-0.049c-0.008-0.021-0.013-0.039-0.013-0.059s0.005-0.041,0.013-0.059  c0.008-0.021,0.019-0.035,0.032-0.049c0.015-0.018,0.029-0.027,0.05-0.033c0.019-0.008,0.037-0.015,0.06-0.015  c0.02,0,0.039,0.007,0.059,0.015c0.018,0.006,0.035,0.018,0.049,0.033c0.016,0.014,0.025,0.027,0.033,0.049  C82.453,50.955,82.459,50.977,82.459,50.996z M81.912,50.996c0,0.02-0.004,0.038-0.012,0.059c-0.008,0.018-0.021,0.034-0.033,0.049  c-0.016,0.016-0.029,0.023-0.049,0.033c-0.021,0.008-0.039,0.01-0.06,0.01s-0.04-0.002-0.059-0.01  c-0.019-0.01-0.035-0.02-0.05-0.033c-0.014-0.015-0.024-0.031-0.032-0.049c-0.009-0.021-0.013-0.039-0.013-0.059  s0.004-0.041,0.013-0.059c0.008-0.021,0.021-0.035,0.032-0.049c0.015-0.018,0.031-0.027,0.05-0.033  c0.019-0.008,0.036-0.015,0.059-0.015c0.021,0,0.039,0.007,0.06,0.015c0.019,0.006,0.033,0.018,0.049,0.033  c0.015,0.014,0.025,0.027,0.033,0.049C81.908,50.955,81.912,50.977,81.912,50.996z M81.365,50.996c0,0.02-0.004,0.038-0.012,0.059  c-0.008,0.018-0.021,0.034-0.033,0.049c-0.016,0.016-0.031,0.023-0.051,0.033c-0.018,0.008-0.035,0.01-0.058,0.01  s-0.039-0.002-0.06-0.01c-0.019-0.01-0.034-0.02-0.049-0.033c-0.015-0.015-0.024-0.031-0.033-0.049  c-0.008-0.021-0.012-0.039-0.012-0.059s0.004-0.041,0.012-0.059c0.009-0.021,0.021-0.035,0.033-0.049  c0.015-0.018,0.03-0.027,0.049-0.033c0.021-0.008,0.037-0.015,0.06-0.015c0.021,0,0.039,0.007,0.058,0.015  c0.02,0.006,0.035,0.018,0.051,0.033c0.015,0.014,0.025,0.027,0.033,0.049C81.363,50.955,81.365,50.977,81.365,50.996z   M80.82,50.996c0,0.02-0.006,0.038-0.014,0.059c-0.007,0.018-0.019,0.034-0.031,0.049c-0.016,0.016-0.031,0.023-0.051,0.033  c-0.019,0.008-0.035,0.01-0.06,0.01c-0.021,0-0.038-0.002-0.06-0.01c-0.018-0.01-0.032-0.02-0.049-0.033  c-0.014-0.015-0.022-0.031-0.033-0.049c-0.006-0.021-0.01-0.039-0.01-0.059s0.004-0.041,0.01-0.059  c0.011-0.021,0.021-0.035,0.033-0.049c0.016-0.018,0.031-0.027,0.049-0.033c0.021-0.008,0.039-0.015,0.06-0.015  s0.041,0.007,0.06,0.015c0.02,0.006,0.035,0.018,0.051,0.033c0.014,0.014,0.024,0.027,0.031,0.049  C80.814,50.955,80.82,50.977,80.82,50.996z M80.273,50.996c0,0.02-0.006,0.038-0.014,0.059c-0.007,0.018-0.019,0.034-0.033,0.049  c-0.014,0.016-0.027,0.023-0.049,0.033c-0.019,0.008-0.037,0.01-0.058,0.01s-0.041-0.002-0.06-0.01  c-0.019-0.01-0.035-0.02-0.051-0.033c-0.014-0.015-0.023-0.031-0.031-0.049c-0.008-0.021-0.012-0.039-0.012-0.059  s0.004-0.041,0.012-0.059c0.008-0.021,0.019-0.035,0.031-0.049c0.016-0.018,0.032-0.027,0.051-0.033  c0.019-0.008,0.037-0.015,0.058-0.015s0.041,0.007,0.06,0.015c0.02,0.006,0.035,0.018,0.049,0.033  c0.018,0.014,0.026,0.027,0.033,0.049C80.27,50.955,80.273,50.977,80.273,50.996z M79.727,50.996c0,0.02-0.004,0.038-0.013,0.059  c-0.007,0.018-0.019,0.034-0.032,0.049c-0.015,0.016-0.029,0.023-0.05,0.033c-0.019,0.008-0.036,0.01-0.058,0.01  s-0.039-0.002-0.061-0.01c-0.019-0.01-0.033-0.02-0.048-0.033c-0.016-0.015-0.024-0.031-0.032-0.049  c-0.01-0.021-0.013-0.039-0.013-0.059s0.003-0.041,0.013-0.059c0.008-0.021,0.018-0.035,0.032-0.049  c0.015-0.018,0.029-0.027,0.048-0.033c0.021-0.008,0.039-0.015,0.059-0.015c0.021,0,0.041,0.007,0.06,0.015  c0.019,0.006,0.034,0.018,0.05,0.033c0.016,0.014,0.025,0.027,0.032,0.049C79.723,50.955,79.727,50.977,79.727,50.996z   M79.18,50.996c0,0.02-0.002,0.038-0.014,0.059c-0.006,0.018-0.018,0.034-0.029,0.049c-0.018,0.016-0.031,0.023-0.051,0.033  c-0.02,0.008-0.038,0.01-0.059,0.01c-0.021,0-0.039-0.002-0.061-0.01c-0.019-0.01-0.033-0.02-0.049-0.033  c-0.016-0.015-0.023-0.031-0.031-0.049c-0.009-0.021-0.013-0.039-0.013-0.059s0.004-0.041,0.013-0.059  c0.008-0.021,0.018-0.035,0.031-0.049c0.016-0.018,0.029-0.027,0.049-0.033c0.021-0.008,0.039-0.015,0.059-0.015  c0.021,0,0.041,0.007,0.06,0.015c0.021,0.006,0.034,0.018,0.052,0.033c0.014,0.014,0.023,0.027,0.029,0.049  C79.178,50.955,79.18,50.977,79.18,50.996z M78.634,50.996c0,0.02-0.004,0.038-0.013,0.059c-0.008,0.018-0.02,0.034-0.032,0.049  c-0.017,0.016-0.03,0.023-0.05,0.033c-0.02,0.008-0.039,0.01-0.059,0.01c-0.021,0-0.039-0.002-0.06-0.01  c-0.019-0.01-0.034-0.02-0.049-0.033c-0.017-0.015-0.024-0.031-0.033-0.049c-0.008-0.021-0.012-0.039-0.012-0.059  s0.004-0.041,0.012-0.059c0.009-0.021,0.019-0.035,0.033-0.049c0.015-0.018,0.03-0.027,0.049-0.033  c0.021-0.008,0.037-0.015,0.058-0.015c0.021,0,0.041,0.007,0.059,0.015c0.021,0.006,0.035,0.018,0.052,0.033  c0.015,0.014,0.024,0.027,0.032,0.049C78.63,50.955,78.634,50.977,78.634,50.996z M78.087,50.996c0,0.02-0.005,0.038-0.013,0.059  c-0.008,0.018-0.02,0.034-0.033,0.049c-0.014,0.016-0.029,0.023-0.049,0.033c-0.02,0.008-0.039,0.01-0.059,0.01  c-0.021,0-0.039-0.002-0.06-0.01c-0.019-0.01-0.033-0.02-0.049-0.033c-0.017-0.015-0.025-0.031-0.033-0.049  c-0.008-0.021-0.013-0.039-0.013-0.059s0.005-0.041,0.013-0.059c0.008-0.021,0.019-0.035,0.033-0.049  c0.016-0.018,0.03-0.027,0.049-0.033c0.021-0.008,0.037-0.015,0.058-0.015c0.021,0,0.041,0.007,0.059,0.015  c0.021,0.006,0.035,0.018,0.051,0.033c0.016,0.014,0.025,0.027,0.033,0.049C78.082,50.955,78.087,50.977,78.087,50.996z   M77.539,50.996c0,0.02-0.004,0.038-0.012,0.059c-0.008,0.018-0.02,0.034-0.033,0.049c-0.014,0.016-0.03,0.023-0.049,0.033  c-0.021,0.008-0.037,0.01-0.059,0.01c-0.021,0-0.039-0.002-0.06-0.01c-0.019-0.01-0.033-0.02-0.05-0.033  c-0.016-0.015-0.024-0.031-0.032-0.049c-0.009-0.021-0.013-0.039-0.013-0.059s0.004-0.041,0.013-0.059  c0.008-0.021,0.019-0.035,0.032-0.049c0.017-0.018,0.031-0.027,0.05-0.033c0.021-0.008,0.039-0.015,0.06-0.015  s0.038,0.007,0.057,0.015c0.021,0.006,0.035,0.018,0.051,0.033c0.016,0.014,0.025,0.027,0.033,0.049  C77.535,50.955,77.539,50.977,77.539,50.996z M76.992,50.996c0,0.02-0.004,0.038-0.012,0.059c-0.008,0.018-0.019,0.034-0.031,0.049  c-0.016,0.016-0.033,0.023-0.051,0.033c-0.02,0.008-0.037,0.01-0.059,0.01s-0.04-0.002-0.058-0.01  c-0.021-0.01-0.035-0.02-0.05-0.033c-0.018-0.015-0.026-0.031-0.035-0.049c-0.008-0.021-0.01-0.039-0.01-0.059  s0.002-0.041,0.01-0.059c0.009-0.021,0.02-0.035,0.035-0.049c0.015-0.018,0.029-0.027,0.05-0.033  c0.018-0.008,0.036-0.015,0.057-0.015s0.04,0.007,0.06,0.015c0.019,0.006,0.035,0.018,0.051,0.033  c0.015,0.014,0.023,0.027,0.031,0.049C76.99,50.955,76.992,50.977,76.992,50.996z M76.447,50.996c0,0.02-0.004,0.038-0.014,0.059  c-0.008,0.018-0.019,0.034-0.031,0.049c-0.014,0.016-0.031,0.023-0.049,0.033c-0.021,0.008-0.039,0.01-0.059,0.01  c-0.021,0-0.041-0.002-0.061-0.01c-0.02-0.01-0.034-0.02-0.049-0.033c-0.016-0.015-0.026-0.031-0.033-0.049  c-0.008-0.021-0.012-0.039-0.012-0.059s0.004-0.041,0.012-0.059c0.007-0.021,0.02-0.035,0.033-0.049  c0.015-0.018,0.029-0.027,0.049-0.033c0.02-0.008,0.037-0.015,0.059-0.015s0.04,0.007,0.059,0.015  c0.02,0.006,0.035,0.018,0.051,0.033c0.016,0.014,0.023,0.027,0.031,0.049C76.443,50.955,76.447,50.977,76.447,50.996z M75.9,50.996  c0,0.02-0.004,0.038-0.014,0.059c-0.006,0.018-0.019,0.034-0.029,0.049c-0.018,0.016-0.033,0.023-0.051,0.033  c-0.021,0.008-0.039,0.01-0.06,0.01s-0.041-0.002-0.06-0.01c-0.02-0.01-0.035-0.02-0.049-0.033  c-0.016-0.015-0.025-0.031-0.033-0.049c-0.008-0.021-0.012-0.039-0.012-0.059s0.004-0.041,0.012-0.059  c0.008-0.021,0.019-0.035,0.033-0.049c0.014-0.018,0.029-0.027,0.049-0.033c0.019-0.008,0.037-0.015,0.06-0.015  c0.021,0,0.039,0.007,0.058,0.015c0.02,0.006,0.035,0.018,0.053,0.033c0.014,0.014,0.023,0.027,0.029,0.049  C75.896,50.955,75.9,50.977,75.9,50.996z M75.354,50.996c0,0.02-0.004,0.038-0.011,0.059c-0.008,0.018-0.021,0.034-0.032,0.049  c-0.016,0.016-0.031,0.023-0.051,0.033c-0.02,0.008-0.037,0.01-0.059,0.01s-0.041-0.002-0.059-0.01  c-0.021-0.01-0.035-0.02-0.05-0.033c-0.016-0.015-0.024-0.031-0.032-0.049c-0.009-0.021-0.013-0.039-0.013-0.059  s0.004-0.041,0.013-0.059c0.008-0.021,0.018-0.035,0.032-0.049c0.015-0.018,0.029-0.027,0.05-0.033  c0.018-0.008,0.037-0.015,0.059-0.015s0.039,0.007,0.059,0.015c0.018,0.006,0.034,0.018,0.051,0.033  c0.015,0.014,0.024,0.027,0.032,0.049C75.35,50.955,75.354,50.977,75.354,50.996z M74.807,50.996c0,0.02-0.004,0.038-0.011,0.059  c-0.009,0.018-0.021,0.034-0.032,0.049c-0.016,0.016-0.031,0.023-0.05,0.033c-0.021,0.008-0.039,0.01-0.06,0.01  c-0.021,0-0.041-0.002-0.059-0.01c-0.021-0.01-0.035-0.02-0.05-0.033c-0.017-0.015-0.024-0.031-0.032-0.049  c-0.008-0.021-0.013-0.039-0.013-0.059s0.005-0.041,0.013-0.059c0.008-0.021,0.02-0.035,0.032-0.049  c0.015-0.018,0.029-0.027,0.05-0.033c0.018-0.008,0.036-0.015,0.059-0.015c0.021,0,0.039,0.007,0.058,0.015  c0.021,0.006,0.036,0.018,0.052,0.033c0.014,0.014,0.023,0.027,0.032,0.049C74.803,50.955,74.807,50.977,74.807,50.996z   M82.49,52.42l0.597,0.457l0.317-0.457c0.164-0.236,0.625,0.117,0.461,0.354l-0.318,0.457l0.602,0.461  c0.308,0.234,0.062,0.588-0.246,0.354l-0.602-0.461l-0.32,0.461c-0.164,0.231-0.623-0.116-0.459-0.354l0.319-0.461l-0.597-0.457  C81.939,52.537,82.184,52.186,82.49,52.42z M33.129,90.625h27.794v-1.664H33.129V90.625z M63.465,93.188H30.587v2.244h32.878V93.188  L63.465,93.188z M30.656,92.389h32.737l-0.779-0.963H31.438L30.656,92.389z M34.72,56.396V75.66c0,0.318-0.116,0.553-0.25,0.766  l-4.062,7.039l0.678,3.096h31.881l0.68-3.096l-4.063-7.039c-0.133-0.213-0.247-0.445-0.247-0.766V60.225l2.396,3.723v11.404  l4.188,7.219c0.164,0.267,0.253,0.566,0.169,0.953l-0.98,4.481c-0.024,0.121-0.063,0.229-0.112,0.325  c-0.177,0.359-0.533,0.631-1.069,0.631h-0.601v0.072c0.286,0.023,0.575,0.164,0.813,0.461l1.407,1.71  c0.192,0.198,0.317,0.481,0.317,0.847v4.58c0,0.846-0.668,1.242-1.299,1.196c-0.019,0.002-35.062,0.002-35.079,0  c-0.631,0.046-1.301-0.353-1.301-1.196v-4.58c0-0.365,0.127-0.648,0.319-0.847l1.407-1.71c0.24-0.297,0.527-0.438,0.814-0.461  v-0.072h-0.601c-0.537,0-0.894-0.271-1.07-0.631c-0.047-0.096-0.086-0.204-0.112-0.325l-0.98-4.481  c-0.085-0.387,0.004-0.688,0.169-0.953l4.188-7.219V57.834L34.72,56.396z M50.449,53.13c0-1.601,2.4-1.601,2.4,0v23.372l1.813,6.355  c0.44,1.539-1.867,2.197-2.308,0.66l-1.86-6.521c-0.043-0.179-0.039-0.249-0.043-0.351L50.449,53.13z M45.83,83.188V53.13  c0-1.601,2.4-1.601,2.4,0v30.058C48.232,84.788,45.83,84.788,45.83,83.188z M43.611,53.13L43.607,76.65  c-0.006,0.101,0,0.172-0.043,0.35l-1.861,6.52c-0.439,1.537-2.746,0.879-2.308-0.66l1.814-6.354V53.13  C41.21,51.529,43.611,51.529,43.611,53.13z"/><text x="0" y="115" fill="#000000" font-size="5px" font-weight="bold" font-family="'Helvetica Neue', Helvetica, Arial-Unicode, Arial, Sans-serif">Created by Simon Child</text><text x="0" y="120" fill="#000000" font-size="5px" font-weight="bold" font-family="'Helvetica Neue', Helvetica, Arial-Unicode, Arial, Sans-serif">from the Noun Project</text></svg>